<svg width="173" height="173" viewBox="0 0 173 173" fill="none" xmlns="http://www.w3.org/2000/svg">
<circle cx="86.5" cy="86.5" r="86.5" fill="#5B8BB4"/>
<circle cx="86.5" cy="86.5" r="86.5" stroke="black"/>
<path d="M39.7165 43.8855C49.5861 43.8855 57.5964 51.9384 57.5964 61.8826C57.5963 71.8267 49.586 79.8787 39.7165 79.8787C29.8469 79.8787 21.8367 71.8267 21.8366 61.8826C21.8366 51.9384 29.8469 43.8855 39.7165 43.8855Z" fill="#FFFBF6" stroke="#FFFBF6" stroke-width="1.69608"/>
<path d="M78.3376 63.1792C84.1227 63.1792 88.8315 67.9138 88.8318 73.7788C88.8318 79.6441 84.1228 84.3794 78.3376 84.3794C72.5524 84.3794 67.8435 79.6441 67.8435 73.7788C67.8438 67.9138 72.5526 63.1792 78.3376 63.1792Z" stroke="#FFFBF6" stroke-width="2.54412"/>
<mask id="path-4-inside-1_142_187" fill="white">
<ellipse cx="103.355" cy="101.553" rx="2.43811" ry="2.54412"/>
</mask>
<path d="M105.793 101.553H103.249C103.249 101.588 103.237 101.597 103.242 101.591C103.245 101.589 103.255 101.579 103.277 101.569C103.3 101.559 103.329 101.553 103.355 101.553V104.097V106.641C106.207 106.641 108.337 104.26 108.337 101.553H105.793ZM103.355 104.097V101.553C103.381 101.553 103.409 101.559 103.433 101.569C103.455 101.579 103.465 101.589 103.468 101.591C103.473 101.597 103.461 101.588 103.461 101.553H100.917H98.3726C98.3726 104.26 100.502 106.641 103.355 106.641V104.097ZM100.917 101.553H103.461C103.461 101.517 103.473 101.509 103.468 101.514C103.465 101.517 103.455 101.526 103.433 101.536C103.409 101.546 103.381 101.553 103.355 101.553V99.0085V96.4644C100.502 96.4644 98.3726 98.8456 98.3726 101.553H100.917ZM103.355 99.0085V101.553C103.329 101.553 103.3 101.546 103.277 101.536C103.255 101.526 103.245 101.517 103.242 101.514C103.237 101.509 103.249 101.517 103.249 101.553H105.793H108.337C108.337 98.8456 106.207 96.4644 103.355 96.4644V99.0085Z" fill="#FFFBF6" mask="url(#path-4-inside-1_142_187)"/>
<path d="M96.7829 83.1074C99.9659 83.1077 102.613 85.8229 102.613 89.2559C102.613 92.6889 99.9659 95.4041 96.7829 95.4043C93.5997 95.4043 90.9518 92.6891 90.9518 89.2559C90.952 85.8228 93.5997 83.1074 96.7829 83.1074Z" fill="#FFFBF6" stroke="#FFFBF6" stroke-width="1.69608"/>
<path d="M86.3936 1.27246C101.084 1.27246 113.001 13.2275 113.001 27.9854C113.001 42.7432 101.084 54.6982 86.3936 54.6982C71.7036 54.698 59.7872 42.7431 59.7872 27.9854C59.7872 13.2276 71.7036 1.27267 86.3936 1.27246Z" stroke="#FFFBF6" stroke-width="2.54412"/>
<path d="M142.259 28.0916C145.285 28.0916 148.166 28.7093 150.782 29.8259V29.8269L150.812 29.8386V29.8396L150.836 29.8494C150.861 29.8603 150.887 29.8715 150.912 29.8826C156.172 35.8624 160.614 42.5797 164.059 49.8601C165.105 52.0693 166.059 54.3305 166.916 56.6384C169.152 62.6573 170.731 68.9956 171.567 75.5662C172.023 79.146 172.258 82.7955 172.258 86.4998C172.258 118.934 154.252 147.164 127.688 161.738C115.465 168.444 101.429 172.259 86.4999 172.259C42.8723 172.258 6.85318 139.679 1.44421 97.5232C13.5639 90.9665 27.441 87.2419 42.1903 87.2419C54.179 87.242 65.5917 89.7018 75.952 94.1433C83.1191 97.2159 89.7836 101.237 95.787 106.05L95.8964 106.137L96.0302 106.179C100.756 107.651 105.78 108.443 110.987 108.443C126.37 108.443 140.139 101.529 149.354 90.6423C150.096 89.7658 150.81 88.8638 151.491 87.9373C156.261 81.4512 159.511 73.7759 160.715 65.4392H160.716L160.722 65.3972V65.3962V65.3904L160.723 65.3884V65.3875L160.732 65.3201C160.823 64.6819 160.901 64.0399 160.968 63.3943C160.99 63.1808 161.011 62.966 161.03 62.7517C161.165 61.2514 161.233 59.7321 161.233 58.197C161.233 55.7839 161.063 53.4097 160.734 51.0867L160.673 50.656L160.267 50.4988C157.903 49.5824 155.333 49.0808 152.647 49.0808C141.472 49.0808 132.327 57.7697 131.599 68.7605C124.99 65.0323 120.527 57.9487 120.527 49.822C120.527 37.8205 130.257 28.0916 142.259 28.0916Z" fill="#FFFBF6" stroke="#FFFBF6" stroke-width="1.48407"/>
<mask id="mask0_142_187" style="mask-type:alpha" maskUnits="userSpaceOnUse" x="0" y="0" width="173" height="173">
<circle cx="86.5" cy="86.5" r="86.5" fill="#FFC678"/>
<circle cx="86.5" cy="86.5" r="86.5" stroke="black"/>
</mask>
<g mask="url(#mask0_142_187)">
<path d="M-12.5706 108.421C-12.6831 108.471 -12.7753 108.56 -12.8253 108.674C-12.8754 108.787 -12.8794 108.915 -12.8361 109.03C-12.7929 109.145 -12.7055 109.239 -12.593 109.291C-12.4804 109.344 -12.3521 109.35 -12.2346 109.313C-10.5245 108.781 -8.79297 108.249 -7.06433 107.775C-0.163055 105.861 6.93453 104.808 13.9817 105.105C24.9814 105.491 35.607 109.758 44.4779 116.348C55.618 125.465 70.7065 128.397 84.0504 129.984C85.6489 130.588 86.9677 131.696 87.8947 133.178C87.962 133.284 88.0676 133.36 88.1899 133.39C88.3122 133.419 88.4408 133.399 88.5478 133.334C88.6548 133.268 88.7317 133.163 88.7618 133.041C88.7919 132.919 88.7725 132.79 88.7094 132.682C87.7727 131.028 86.2666 129.649 84.492 128.913C70.2921 126.581 56.7579 123.628 45.8383 114.53C36.8027 107.576 25.6436 102.962 14.0851 102.563C6.68146 102.248 -0.727478 103.722 -7.5381 106.324C-9.24539 106.969 -10.9332 107.689 -12.5706 108.421Z" fill="#5B8BB4"/>
<path d="M92.8512 123.367C93.5812 123.662 94.1575 124.126 94.5015 124.63C94.8459 125.136 94.9511 125.672 94.7669 126.127C94.5827 126.581 94.1344 126.893 93.5352 127.016C92.9369 127.14 92.2007 127.071 91.4707 126.776C90.7406 126.48 90.1635 126.017 89.8196 125.512C89.4753 125.006 89.3709 124.471 89.555 124.016C89.7392 123.561 90.1868 123.249 90.7858 123.126C91.3842 123.002 92.1211 123.071 92.8512 123.367Z" fill="#5B8BB4" stroke="#5B8BB4" stroke-width="0.21201"/>
<path d="M89.4893 134.924C89.4625 134.892 89.4489 134.85 89.4519 134.809C89.455 134.767 89.4744 134.728 89.5059 134.701C89.5374 134.673 89.5786 134.659 89.6204 134.662C89.6622 134.665 89.7012 134.684 89.7292 134.715C90.9684 136.052 92.7782 136.671 94.5899 137.1C101.917 138.534 109.477 137.812 116.923 137.45C130.028 136.666 143.131 135.337 156.316 135.943C162.847 136.309 169.59 137.052 175.614 139.82C181.851 142.348 185.983 149.176 185.169 155.763C185.026 157.792 184.723 159.397 184.21 161.389C184.199 161.43 184.173 161.464 184.137 161.486C184.101 161.507 184.057 161.513 184.017 161.503C183.976 161.493 183.941 161.466 183.92 161.43C183.898 161.394 183.892 161.351 183.902 161.31C184.388 159.329 184.664 157.738 184.784 155.74C185.477 149.237 181.47 142.794 175.365 140.353C169.456 137.698 162.77 136.998 156.281 136.675C143.176 136.148 130.101 137.51 116.974 138.297C109.511 138.656 101.918 139.281 94.4685 137.594C92.6265 137.098 90.7616 136.401 89.4893 134.924Z" fill="#5B8BB4"/>
<path d="M87.2632 141.708C87.2363 141.676 87.2227 141.635 87.2258 141.593C87.2289 141.551 87.2482 141.512 87.2797 141.485C87.3113 141.458 87.3524 141.444 87.3942 141.446C87.4361 141.449 87.4751 141.468 87.5031 141.499C88.7423 142.836 90.5521 143.455 92.3637 143.884C99.6912 145.318 107.251 144.596 114.697 144.235C127.802 143.45 140.905 142.121 154.09 142.728C160.621 143.093 167.364 143.836 173.388 146.604C179.625 149.132 183.757 155.961 182.943 162.547C182.8 164.577 182.497 166.182 181.984 168.173C181.973 168.214 181.947 168.249 181.911 168.27C181.875 168.292 181.831 168.298 181.791 168.287C181.75 168.277 181.715 168.251 181.694 168.215C181.672 168.178 181.666 168.135 181.676 168.094C182.162 166.114 182.438 164.522 182.558 162.524C183.251 156.021 179.244 149.579 173.139 147.138C167.23 144.482 160.544 143.782 154.055 143.46C140.95 142.932 127.875 144.294 114.748 145.081C107.285 145.441 99.6916 146.065 92.2423 144.378C90.4004 143.882 88.5354 143.186 87.2632 141.708Z" fill="#5B8BB4"/>
<path d="M85.0371 148.493C85.0103 148.461 84.9967 148.419 84.9997 148.377C85.0028 148.336 85.0222 148.297 85.0537 148.269C85.0852 148.242 85.1263 148.228 85.1682 148.231C85.21 148.234 85.249 148.253 85.277 148.284C86.5162 149.621 88.326 150.24 90.1377 150.668C97.4652 152.103 105.025 151.381 112.471 151.019C125.576 150.235 138.679 148.905 151.864 149.512C158.395 149.878 165.137 150.621 171.162 153.389C177.399 155.917 181.53 162.745 180.717 169.331C180.574 171.361 180.271 172.966 179.758 174.958C179.747 174.998 179.721 175.033 179.685 175.055C179.648 175.076 179.605 175.082 179.565 175.072C179.524 175.061 179.489 175.035 179.467 174.999C179.446 174.963 179.44 174.92 179.45 174.879C179.936 172.898 180.212 171.307 180.332 169.308C181.024 162.806 177.018 156.363 170.913 153.922C165.004 151.267 158.318 150.566 151.829 150.244C138.724 149.717 125.648 151.079 112.522 151.866C105.059 152.225 97.4656 152.85 90.0163 151.162C88.1743 150.666 86.3093 149.97 85.0371 148.493Z" fill="#5B8BB4"/>
<path d="M82.811 155.277C82.7841 155.245 82.7705 155.203 82.7736 155.162C82.7766 155.12 82.796 155.081 82.8275 155.054C82.859 155.026 82.9002 155.012 82.942 155.015C82.9839 155.018 83.0229 155.037 83.0509 155.068C84.29 156.405 86.0999 157.024 87.9115 157.453C95.239 158.887 102.799 158.165 110.245 157.803C123.35 157.019 136.453 155.69 149.638 156.296C156.168 156.662 162.911 157.405 168.936 160.173C175.173 162.701 179.304 169.529 178.491 176.116C178.347 178.145 178.045 179.75 177.532 181.742C177.521 181.783 177.495 181.818 177.459 181.839C177.422 181.86 177.379 181.866 177.338 181.856C177.298 181.846 177.263 181.819 177.241 181.783C177.22 181.747 177.214 181.704 177.224 181.663C177.71 179.682 177.986 178.091 178.105 176.093C178.798 169.59 174.792 163.147 168.687 160.706C162.778 158.051 156.092 157.351 149.603 157.028C136.497 156.501 123.422 157.863 110.295 158.65C102.833 159.009 95.2394 159.634 87.7901 157.947C85.9482 157.451 84.0832 156.754 82.811 155.277Z" fill="#5B8BB4"/>
<path d="M80.5849 162.061C80.5581 162.029 80.5445 161.988 80.5475 161.946C80.5506 161.904 80.5699 161.865 80.6015 161.838C80.633 161.81 80.6741 161.796 80.716 161.799C80.7578 161.802 80.7968 161.821 80.8248 161.852C82.064 163.189 83.8738 163.808 85.6855 164.237C93.013 165.671 100.573 164.949 108.018 164.587C121.124 163.803 134.227 162.474 147.412 163.081C153.942 163.446 160.685 164.189 166.71 166.957C172.947 169.485 177.078 176.313 176.265 182.9C176.121 184.929 175.819 186.534 175.306 188.526C175.295 188.567 175.269 188.602 175.233 188.623C175.196 188.644 175.153 188.651 175.112 188.64C175.072 188.63 175.037 188.604 175.015 188.567C174.994 188.531 174.988 188.488 174.998 188.447C175.484 186.467 175.76 184.875 175.879 182.877C176.572 176.374 172.566 169.932 166.461 167.49C160.552 164.835 153.866 164.135 147.377 163.812C134.271 163.285 121.196 164.647 108.069 165.434C100.606 165.793 93.0133 166.418 85.5641 164.731C83.7221 164.235 81.8571 163.538 80.5849 162.061Z" fill="#5B8BB4"/>
<path d="M78.3587 168.845C78.3319 168.813 78.3183 168.772 78.3214 168.73C78.3244 168.688 78.3438 168.65 78.3753 168.622C78.4068 168.595 78.448 168.581 78.4898 168.584C78.5317 168.586 78.5707 168.606 78.5987 168.637C79.8378 169.974 81.6476 170.592 83.4593 171.021C90.7868 172.455 98.3469 171.733 105.792 171.372C118.898 170.587 132.001 169.258 145.185 169.865C151.716 170.23 158.459 170.974 164.483 173.742C170.72 176.27 174.852 183.098 174.039 189.684C173.895 191.714 173.593 193.319 173.08 195.311C173.069 195.351 173.043 195.386 173.006 195.408C172.97 195.429 172.927 195.435 172.886 195.425C172.845 195.414 172.811 195.388 172.789 195.352C172.768 195.316 172.761 195.272 172.772 195.232C173.258 193.251 173.534 191.66 173.653 189.661C174.346 183.159 170.34 176.716 164.235 174.275C158.326 171.619 151.639 170.919 145.151 170.597C132.045 170.07 118.97 171.432 105.843 172.218C98.3803 172.578 90.7872 173.203 83.3379 171.515C81.496 171.019 79.631 170.323 78.3587 168.845Z" fill="#5B8BB4"/>
</g>
</svg>

